<svg xmlns="http://www.w3.org/2000/svg" width="52.084" height="36.383" viewBox="0 0 52.084 36.383">
  <g id="hamburger_menu_icon" data-name="hamburger menu icon" transform="translate(-4.5 -7.125)">
    <path id="Path_22" data-name="Path 22" d="M42.981,14.465H6.173A1.977,1.977,0,0,1,4.5,12.3h0a1.977,1.977,0,0,1,1.673-2.17H42.981a1.977,1.977,0,0,1,1.673,2.17h0A1.977,1.977,0,0,1,42.981,14.465Z" transform="translate(11.93 -3)" fill="#fff"/>
    <path id="Path_23" data-name="Path 23" d="M54.414,21.215H6.67a2.177,2.177,0,0,1-2.17-2.17h0a2.177,2.177,0,0,1,2.17-2.17H54.414a2.177,2.177,0,0,1,2.17,2.17h0A2.177,2.177,0,0,1,54.414,21.215Z" transform="translate(0 6.271)" fill="#fff"/>
    <path id="Path_24" data-name="Path 24" d="M54.414,27.965H6.67A2.177,2.177,0,0,1,4.5,25.8h0a2.177,2.177,0,0,1,2.17-2.17H54.414a2.177,2.177,0,0,1,2.17,2.17h0A2.177,2.177,0,0,1,54.414,27.965Z" transform="translate(0 15.542)" fill="#fff"/>
  </g>
</svg>
